<?xml version="1.0" encoding="UTF-8" standalone="no"?>
<!-- Created with Inkscape (http://www.inkscape.org/) -->

<svg
   width="512"
   height="512"
   viewBox="0 0 512 512"
   version="1.1"
   id="svg1"
   xml:space="preserve"
   xmlns:xlink="http://www.w3.org/1999/xlink"
   xmlns="http://www.w3.org/2000/svg"
   xmlns:svg="http://www.w3.org/2000/svg"><defs
     id="defs1" /><g
     id="g3"
     transform="matrix(1.5334377,-0.06047496,0.06047496,1.5334377,-167.17436,-137.03392)"
     style="display:inline;fill:#fe6500;fill-opacity:1;stroke:#303030;stroke-width:1.00024;stroke-dasharray:none;stroke-opacity:1"><circle
       style="display:none;fill:#fe6500;fill-opacity:1;stroke:#303030;stroke-width:1.00024;stroke-dasharray:none;stroke-opacity:1"
       id="path1"
       cx="-171.71051"
       cy="334.51788"
       r="163.14914"
       transform="matrix(-0.95279572,0.30361212,0.30361212,0.95279572,0,0)" /><text
       xml:space="preserve"
       style="font-size:48.3637px;direction:ltr;display:none;fill:#f10d33;fill-opacity:1;stroke:#303030;stroke-width:1.62906;stroke-dasharray:none;stroke-opacity:1"
       id="text2"
       x="197.00154"
       y="0"><textPath
         xlink:href="#circle2"
         startOffset="50%"
         id="textPath2"
         style="font-style:normal;font-variant:normal;font-weight:normal;font-stretch:normal;font-size:48.3637px;font-family:Recharge;-inkscape-font-specification:Recharge;text-align:center;direction:ltr;text-anchor:middle;fill:#f10d33;fill-opacity:1;stroke:#303030;stroke-width:1.62906;stroke-dasharray:none;stroke-opacity:1">JOSS</textPath></text><text
       xml:space="preserve"
       style="font-size:48.3637px;letter-spacing:14.5091px;display:none;fill:#f10d33;fill-opacity:1;stroke:#303030;stroke-width:1.62906;stroke-dasharray:none;stroke-opacity:1"
       id="text2-6"
       x="194.51151"
       y="0"><textPath
         xlink:href="#path1"
         id="textPath1"
         style="font-style:normal;font-variant:normal;font-weight:normal;font-stretch:normal;font-size:48.3637px;font-family:Recharge;-inkscape-font-specification:Recharge;text-align:start;letter-spacing:14.5091px;text-anchor:start;fill:#f10d33;fill-opacity:1;stroke:#303030;stroke-width:1.62906;stroke-dasharray:none;stroke-opacity:1">DRYWALL</textPath></text><circle
       style="display:none;fill:#fe6500;fill-opacity:1;stroke:#303030;stroke-width:1.00024;stroke-dasharray:none;stroke-opacity:1"
       id="circle2"
       cx="266.59381"
       cy="-265.1687"
       r="128.44885"
       transform="rotate(90)" /><g
       id="g9"
       style="display:inline;opacity:1;fill:#fe6500;fill-opacity:1;stroke:#303030;stroke-width:1.00024;stroke-dasharray:none;stroke-opacity:1"
       transform="translate(-15.108328,-3.4999613)"><use
         x="0"
         y="0"
         xlink:href="#g8"
         id="use8"
         transform="matrix(-0.9968942,-0.07875252,-0.07875252,0.9968942,579.6408,22.85959)"
         style="display:inline;opacity:1;fill:#fe6500;fill-opacity:1;stroke:#303030;stroke-width:1.00024;stroke-dasharray:none;stroke-opacity:1" /><g
         id="g8"
         style="fill:#fe6500;fill-opacity:1;stroke:#303030;stroke-width:1.00024;stroke-dasharray:none;stroke-opacity:1"><path
           id="path3"
           style="display:inline;fill:#f10d33;fill-opacity:1;stroke:#303030;stroke-width:1.00024;stroke-dasharray:none;stroke-opacity:1"
           d="m 274.92392,264.93395 -4.64771,18.18333 c 0,0 -0.17166,1.37062 -0.33753,2.58374 -0.16588,1.21313 -0.85002,1.6477 2.09452,5.99253 2.94453,4.34481 24.99992,35.24658 26.77706,38.07074 1.77713,2.82416 11.52136,23.11661 12.94395,26.94974 1.42258,3.83312 -0.0848,6.13457 4.31485,6.30808 4.39967,0.17351 9.89946,0.39041 14.29914,0.56392 4.39968,0.17351 7.13942,-1.45001 8.81609,-4.05928 1.67665,-2.60926 1.90754,-4.48938 -2.25665,-10.63388 -2.95306,-4.3574 -23.2691,-33.26029 -40.60592,-57.82591 -7.11038,-10.07513 -13.71997,-19.4208 -18.4247,-26.04377 -0.52851,-0.74397 -2.3489,0.21011 -2.9731,-0.0892 z" /><path
           id="path4"
           style="display:inline;fill:#cccccc;fill-opacity:1;stroke:#303030;stroke-width:1.00024;stroke-dasharray:none;stroke-opacity:1"
           d="m 261.16516,172.54298 c -1.09917,-0.15479 -2.6027,0.48314 -5.24439,1.69479 -10.61124,4.867 -27.04158,13.1694 -41.2619,20.71963 -2.61847,1.39027 -3.40063,2.10744 -3.7101,3.2901 -0.38086,1.45546 -1.28321,2.35445 -2.25703,3.36015 -1.10533,1.14149 -4.79797,3.94131 -7.3425,5.61143 -2.54454,1.67013 -6.0718,0.31222 -7.26323,-0.40362 -1.19143,-0.71584 -3.71965,0.20686 -4.59611,0.92048 -0.87646,0.71363 -0.6524,2.15838 -0.25852,3.3256 1.60468,4.75541 6.71361,12.56916 9.23644,15.12379 1.14695,1.1614 2.59826,0.0515 3.37183,-0.49368 0.82048,-0.57826 1.27577,-3.41238 1.34087,-5.06226 0.0804,-2.03876 3.73513,-4.21289 6.12241,-5.58186 2.56255,-1.46948 7.13738,-1.46191 10.1596,-0.53295 1.29739,0.3988 3.9735,3.29437 7.9206,8.95818 3.94709,5.66382 42.89308,59.64452 42.89308,59.64452 l 4.64771,-18.18333 c -0.6242,-0.29934 -1.67859,-1.53878 -2.98131,-3.40114 -5.73872,-8.20405 -28.72037,-40.80521 -35.27557,-50.00922 -4.33277,-6.08357 -4.47883,-8.59436 -2.15777,-11.81706 5.21986,-7.24759 13.74185,-3.60708 19.36647,0.96882 2.89099,2.35195 2.82447,4.11466 8.93713,0.33208 3.81228,-2.35907 3.20746,-2.89364 3.26176,-3.90386 0.11458,-2.13179 -0.59647,-2.77435 2.57536,-1.45234 1.81773,0.75762 1.32226,1.42202 4.01442,-0.51037 2.96785,-2.13027 2.6947,-1.80682 1.10377,-4.54048 -2.63826,-4.53327 -6.5986,-11.07578 -10.90212,-16.87585 -0.52707,-0.71036 -1.0414,-1.08868 -1.7009,-1.18155 z" /><path
           style="fill:none;fill-opacity:1;stroke:#303030;stroke-width:1.00024;stroke-dasharray:none;stroke-opacity:1"
           d="m 229.56681,213.89994 c -1.05352,1.08714 -3.28914,2.09616 -1.52152,4.66128 8.14241,11.81603 23.39697,33.5558 35.54088,50.54226 2.42405,3.39067 2.69812,0.42115 3.08774,-2.47493 0.38962,-2.89609 0.98406,-5.62809 -0.11087,-7.16497 -11.45436,-16.07781 -18.75162,-27.26907 -30.94456,-44.38072 -2.6742,-3.75298 -4.99815,-2.27005 -6.05167,-1.18292 z"
           id="path5" /><path
           style="fill:none;fill-opacity:1;stroke:#303030;stroke-width:1.00024;stroke-linecap:round;stroke-linejoin:miter;stroke-dasharray:none;stroke-opacity:1"
           d="m 210.32098,204.09183 c 12.21952,9.68839 13.84282,5.78208 15.44757,3.36329 1.60475,-2.41879 4.62081,-6.47269 5.30706,-6.87262"
           id="path6" /><path
           style="fill:none;fill-opacity:1;stroke:#303030;stroke-width:1.00024;stroke-linecap:round;stroke-dasharray:none;stroke-dashoffset:0;stroke-opacity:1"
           d="m 277.70907,275.12926 c -1.05855,7.81646 -2.09011,8.36847 0.0852,11.80655 7.5589,11.94684 33.53061,48.10901 42.24828,61.03621 2.19014,3.24769 4.51265,3.79009 7.2649,4.33894 2.45933,0.49043 3.8048,1.29102 5.54298,-0.88303"
           id="path7" /></g></g><path
       style="font-size:48.3637px;font-family:Recharge;-inkscape-font-specification:Recharge;text-align:center;text-anchor:middle;fill:#f10d33;stroke-width:1.62906"
       d="m 179.18973,157.68612 15.95863,-9.5931 q 2.40416,-1.4452 2.8175,-3.1044 0.42988,-1.72557 -1.1399,-4.33698 l -10.56487,-17.57522 8.5389,-5.13293 10.93863,18.19698 q 1.64453,2.73576 2.32684,5.37279 0.69884,2.57066 0.15346,5.04281 -0.52885,2.40579 -2.36829,4.69654 -1.82292,2.22438 -5.18044,4.24267 l -16.7462,10.06652 z m 77.67296,-34.9872 q 0.67096,3.12069 0.4634,5.83664 -0.21773,2.66866 -1.48633,4.82123 -1.27876,2.1053 -3.76042,3.67771 -2.44453,1.51496 -6.27447,2.33842 l -15.31975,3.29381 q -3.82993,0.82346 -6.72839,0.45726 -2.90863,-0.41348 -4.93969,-1.80714 -2.04122,-1.44095 -3.33656,-3.7843 -1.3055,-2.39063 -1.97646,-5.51132 l -1.52491,-7.09248 q -0.67097,-3.12069 -0.45324,-5.78935 0.20756,-2.71595 1.48633,-4.82124 1.2686,-2.15257 3.76042,-3.67771 2.48165,-1.57241 6.31159,-2.39586 l 15.31974,-3.29382 q 3.82994,-0.82345 6.69128,-0.39981 2.89847,0.3662 4.93969,1.80715 2.03106,1.39366 3.33656,3.78429 1.29533,2.34335 1.96629,5.46404 z m -33.80133,6.377 q 0.38632,1.79676 0.95112,2.81311 0.61208,1.00618 1.50077,1.4582 0.92581,0.39458 2.206,0.36668 1.31731,-0.0854 3.16136,-0.48183 l 12.10449,-2.60253 q 1.56034,-0.33548 2.48213,-0.87995 0.96906,-0.55463 1.3738,-1.43316 0.39458,-0.9258 0.29906,-2.2904 -0.0482,-1.37476 -0.46504,-3.31337 l -0.97595,-4.53918 q -0.68113,-3.16797 -2.11736,-4.0959 -1.43623,-0.92793 -4.22594,-0.32813 l -13.57027,2.91767 q -1.56034,0.33548 -2.52941,0.89012 -0.92178,0.54447 -1.31636,1.47028 -0.40474,0.87852 -0.3565,2.25328 0.0854,1.31731 0.50216,3.25592 z m 76.01347,-10.52148 -0.38243,-0.0587 0.58707,-3.8243 q 0.0881,-0.57364 -0.48558,-0.6617 l -18.35663,-2.81793 q -1.00388,-0.1541 -1.45236,0.21742 -0.44847,0.37153 -0.57322,1.18419 l -0.13209,0.86047 q -0.15411,1.00388 0.13649,1.34207 0.29059,0.33819 1.22465,0.62837 l 21.14497,6.32857 q 2.01153,0.60237 3.35024,1.44397 1.34605,0.79379 2.10022,1.9371 0.7615,1.0955 0.92378,2.58832 0.16228,1.49282 -0.13859,3.45277 l -0.42563,2.77262 q -0.33022,2.15117 -1.1129,3.74358 -0.77535,1.5446 -2.14656,2.50843 -1.36388,0.91603 -3.41189,1.1888 -2.04801,0.27277 -4.91624,-0.16753 l -30.97681,-4.75525 1.38695,-9.0349 27.77396,4.26358 q 1.2429,0.1908 1.69137,-0.18073 0.50362,-0.41199 0.67974,-1.55928 l 0.14677,-0.95608 q 0.13943,-0.90827 -0.14383,-1.29426 -0.22812,-0.42646 -1.12171,-0.6615 l -20.43882,-5.82872 q -2.05933,-0.60971 -3.50099,-1.41819 -1.39385,-0.80113 -2.20316,-1.90397 -0.80931,-1.10284 -1.02673,-2.5552 -0.21742,-1.45235 0.0761,-3.3645 l 0.37426,-2.43799 q 0.57973,-3.77649 2.90303,-5.52384 2.33065,-1.79516 7.01541,-1.076 l 30.92901,4.74792 q 1.48192,0.22749 1.24709,1.75721 l -1.10075,7.17055 z m 49.2549,20.95859 -0.33831,-0.18774 1.87741,-3.38308 q 0.28161,-0.50746 -0.22585,-0.78907 l -16.23879,-9.01157 q -0.88806,-0.49282 -1.43758,-0.29996 -0.54951,0.19285 -0.94846,0.91176 l -0.42242,0.76119 q -0.49282,0.88806 -0.33761,1.30606 0.15522,0.41801 0.93059,1.01422 l 17.63594,13.27155 q 1.6776,1.26284 2.64118,2.51662 0.98704,1.21149 1.2977,2.54543 0.33413,1.29165 -0.0316,2.74805 -0.36572,1.4564 -1.32789,3.19023 l -1.36112,2.45273 q -1.05605,1.90298 -2.34259,3.12494 -1.26307,1.17966 -2.88351,1.6079 -1.59696,0.38594 -3.6124,-0.0688 -2.01544,-0.45471 -4.55275,-1.86277 l -27.40296,-15.20702 4.43538,-7.99253 24.56963,13.63469 q 1.0995,0.61016 1.64901,0.41731 0.61528,-0.21168 1.1785,-1.2266 l 0.46935,-0.84577 q 0.44589,-0.80349 0.31414,-1.26378 -0.066,-0.47911 -0.82254,-1.00958 l -17.14707,-12.55775 q -1.71989,-1.2863 -2.79151,-2.54473 -1.02933,-1.23496 -1.40575,-2.55008 -0.37641,-1.31512 -0.0764,-2.7527 0.29996,-1.43758 1.23867,-3.12912 l 1.19685,-2.15671 q 1.85394,-3.34079 4.63917,-4.17356 2.80869,-0.87505 6.95296,1.42478 l 27.36067,15.18355 q 1.31094,0.72749 0.55998,2.08073 l -3.52014,6.34327 z"
       id="text4"
       aria-label="JOSS" /><path
       style="font-size:48.3637px;font-family:Recharge;-inkscape-font-specification:Recharge;letter-spacing:14.5091px;fill:#f10d33;stroke-width:1.62906"
       d="m 139.58768,304.09058 q 1.30654,-0.63095 1.89542,0.58849 l 11.48323,23.77904 q 1.70356,3.52766 1.98778,6.45175 0.32777,2.90306 -0.59108,5.22656 -0.87529,2.30246 -2.89056,4.13499 -1.97172,1.81149 -4.84611,3.19958 l -6.5327,3.15473 q -2.87439,1.38808 -5.56267,1.82697 -2.64473,0.41785 -5.03578,-0.30725 -2.34751,-0.74613 -4.46089,-2.7869 -2.06982,-2.06179 -3.77338,-5.58945 l -6.18328,-12.8041 6.01565,-6.44976 -0.16825,-0.34841 -7.40373,3.57537 -4.3325,-8.97158 z m -17.83515,19.67664 7.34002,15.19943 q 1.24086,2.56953 2.89899,3.11149 1.65812,0.54196 4.53251,-0.84612 l 5.31327,-2.56585 q 2.96149,-1.43015 3.48093,-3.02369 0.563,-1.61457 -0.67787,-4.1841 l -7.02454,-14.54616 q -0.14722,-0.30485 -0.4491,-0.3739 -0.25833,-0.0901 -0.51964,0.0361 z m 36.18599,42.52207 -11.74755,12.25431 -7.19199,-6.89457 23.36123,-24.36897 q 1.00406,-1.04737 1.98161,-0.11025 l 19.86525,19.04375 q 2.37405,2.27588 3.47944,4.40751 1.10539,2.13164 1.08032,4.18452 0.008,2.01797 -0.97689,3.95431 -0.9853,1.93633 -2.79261,3.82161 l -1.74038,1.81545 q -1.77384,1.85037 -3.6334,2.8816 -1.85955,1.03124 -3.87608,1.10802 -1.94815,0.0753 -4.05471,-0.87216 -2.10657,-0.94749 -4.37588,-3.12297 l -0.73317,-0.70284 q -0.52369,-0.50203 -0.94264,-0.90366 -0.38404,-0.36816 -0.7346,-0.77122 l -0.23429,0.24438 q 0.0522,0.85405 0.004,1.81283 -0.0147,0.92387 -0.0978,1.84919 l -0.80312,8.9447 -0.26775,0.2793 -8.09971,-7.76476 2.77502,-20.85579 z m 7.01519,-6.33938 q -0.48877,-0.46857 -1.05774,0.12495 l -5.32154,5.5511 12.35904,11.84795 q 1.43142,1.37222 2.56043,1.38259 1.16393,0.0438 2.67003,-1.52723 l 0.83672,-0.87281 q 1.40569,-1.46633 1.31276,-2.62737 -0.058,-1.12757 -1.48943,-2.49979 z m 69.45906,32.80096 -0.15455,0.3547 -24.29034,12.52282 -5.44804,12.50317 -9.13352,-3.97977 5.52532,-12.68052 -7.35523,-26.10082 0.15455,-0.3547 10.41931,4.54004 4.30495,15.90878 q 0.05,0.12731 0.0557,0.2353 0.0693,0.083 0.29104,0.17958 l 0.31036,0.13523 q 0.26603,0.11592 0.53997,-0.0285 l 14.40547,-7.75604 z m 60.06517,2.12328 -0.004,0.38688 -5.45667,33.40806 q -0.10494,0.72432 -0.44729,1.05901 -0.29345,0.28688 -1.11558,0.27757 l -14.45982,-0.16368 q -1.8377,-0.0208 -2.11144,-1.4749 l -5.13557,-24.8703 q -0.0918,-0.43634 -0.52704,-0.44127 l -0.43524,-0.005 q -0.53197,-0.006 -0.63362,0.42813 l -5.02016,24.75534 q -0.30659,1.44754 -2.14429,1.42674 l -14.02457,-0.15876 q -0.77377,-0.009 -1.10847,-0.35111 -0.33469,-0.34236 -0.42375,-1.0205 l -5.18265,-33.52849 0.004,-0.38688 9.96228,0.11276 3.85739,26.69377 q 0.0896,0.62979 0.71829,0.6369 l 0.4836,0.005 q 0.58033,0.007 0.73253,-0.62048 l 5.3169,-25.33238 q 0.10438,-0.67596 0.49455,-0.96174 0.43853,-0.28524 1.35738,-0.27484 l 12.18688,0.13795 q 1.54754,0.0175 1.82347,1.27818 l 5.32243,25.45282 q 0.13797,0.63033 0.66993,0.63635 l 0.53197,0.006 q 0.77377,0.009 0.82925,-0.61938 l 3.73523,-26.60783 z m 22.94116,26.91069 -10.55419,4.5937 -0.15441,-0.35476 2.75238,-37.90932 q 0.0402,-0.75594 0.25411,-1.11278 0.21391,-0.35683 0.96778,-0.68495 l 11.13068,-4.84462 q 0.75387,-0.32812 1.1608,-0.2415 0.45127,0.0673 1.07625,0.53374 l 29.48668,23.8773 0.15441,0.35477 -27.62715,12.02468 -5.71031,-5.84849 -0.38603,-0.88691 9.04645,-3.93745 q 1.41905,-0.61764 2.43899,-1.06157 1.06429,-0.46323 1.88181,-0.76631 0.79822,-0.34742 1.43835,-0.57329 0.64014,-0.22588 1.23593,-0.43245 l -0.002,-0.36832 q -0.47839,-0.37199 -0.98182,-0.68033 -0.47839,-0.372 -1.12267,-0.88277 -0.64428,-0.51077 -1.5374,-1.2297 -0.89313,-0.71894 -2.2203,-1.82917 l -9.539,-7.97979 q -0.31249,-0.23321 -0.75594,-0.0402 l -0.53214,0.23162 q -0.39911,0.17371 -0.44139,0.56133 z m 32.30996,-58.79177 17.61382,17.54196 q 0.41122,0.40954 0.78747,0.44297 0.37625,0.0334 0.85405,-0.44633 l 19.45314,-19.53283 6.51095,6.48438 -25.49386,25.59829 q -0.98972,0.99378 -1.87901,0.9272 -0.92357,-0.10071 -1.84881,-1.02217 l -23.02818,-22.93423 z m 27.56736,-34.18478 22.49976,10.57014 q 0.52529,0.24678 0.89075,0.1513 0.36547,-0.0955 0.65337,-0.70832 l 11.72175,-24.9511 8.31703,3.90725 -15.36166,32.69907 q -0.59637,1.26944 -1.45598,1.50683 -0.90338,0.21681 -2.08527,-0.33843 l -29.41603,-13.81932 z"
       id="text5"
       aria-label="DRYWALL" /></g></svg>
